:SAMPLES-PER-SECOND 30
:FULLY-SPECIFIED
:DEGREES
68
root  -29.3974 36.7838 19.1786 -6.76602 -77.8699 14.8773
RightUpLeg  -50.1276 -23.2792 13.1161
RightLeg  35.3319 2.73012 1.80891
RightFoot  3.51635 1.82393 -13.7214
RightToes  0.00048216 0.542163 -0.142577
Spine  49.5628 -4.51946 13.5059
Spine1  14.6248 -0.0936871 3.13312
HEad  -21.3082 -9.09651 -1.64402
LeftShoulder1  7.96728 -19.1771 -28.9985
LeftArm  -21.7793 -36.7258 -23.4066
LeftForeArm  24.0596 -4.55311 -3.91707
LeftHand  -0.25398 0.0180481 5.50724
RightShoulder  3.25905 10.5851 16.4751
RightArm  -24.4024 36.3594 21.7604
RightForeArm  5.38622 -2.69082 3.70858
RightHand  -1.01838 2.73256 -14.7806
LeftUpLeg  -47.7 25.1886 -8.6883
LeftLeg  71.3383 1.92176 7.29769
LeftFoot  -2.79681 0.15261 -1.80221
LeftToes  1.06246e-005 4.65855e-005 -8.18505e-006
69
root  -30.2155 36.9235 19.699 -8.72294 -79.2639 18.7284
RightUpLeg  -51.5451 -22.9649 13.0935
RightLeg  36.6415 2.81133 1.9699
RightFoot  2.71737 1.7602 -14.0355
RightToes  0.00048216 0.542163 -0.142577
Spine  52.6057 -4.71668 13.3546
Spine1  14.5226 0.686549 1.67975
HEad  -24.2228 -9.55025 -0.891793
LeftShoulder1  7.98512 -19.9134 -27.9397
LeftArm  -23.0848 -41.5751 -19.7553
LeftForeArm  22.4882 -2.56048 -4.20955
LeftHand  -0.25398 0.0180481 5.50724
RightShoulder  3.24101 11.2949 15.114
RightArm  -27.7736 42.053 16.6167
RightForeArm  4.53881 -3.07949 3.72167
RightHand  -0.990133 3.06617 -13.8257
LeftUpLeg  -52.3672 23.7463 -10.0456
LeftLeg  61.107 2.15544 4.89236
LeftFoot  -3.32003 0.103359 -1.24105
LeftToes  1.06246e-005 4.65855e-005 -8.18505e-006
70
root  -31.0152 36.9991 20.2381 -10.6648 -80.7988 22.6711
RightUpLeg  -53.3939 -22.9387 13.5961
RightLeg  38.1054 2.95801 2.20958
RightFoot  1.89131 1.70808 -14.5242
RightToes  0.00048216 0.542163 -0.142577
Spine  55.5673 -4.81022 13.0577
Spine1  14.2795 1.65375 0.182081
HEad  -26.6341 -10.0233 -0.253059
LeftShoulder1  8.02792 -20.9725 -26.5807
LeftArm  -25.8159 -45.3789 -16.3757
LeftForeArm  21.0513 -2.05436 -4.09415
LeftHand  -0.25398 0.0180481 5.50724
RightShoulder  3.26649 12.1082 14.0381
RightArm  -32.6351 46.6144 10.3248
RightForeArm  3.47187 -2.7304 3.58231
RightHand  -1.05374 3.80854 -13.5673
LeftUpLeg  -54.7485 22.5941 -10.2276
LeftLeg  47.6244 1.19566 1.87354
LeftFoot  -2.98496 0.327504 -4.09419
LeftToes  1.06246e-005 4.65855e-005 -8.18505e-006
71
root  -31.8429 36.8397 20.8678 -12.7658 -83.4314 27.1161
RightUpLeg  -56.3483 -22.5106 15.1265
RightLeg  40.7597 3.15636 2.62221
RightFoot  0.314574 1.57645 -15.3154
RightToes  0.00048216 0.542163 -0.142577
Spine  58.2157 -4.27108 12.6674
Spine1  13.6306 2.84012 -1.12174
HEad  -28.4839 -10.2768 0.0647942
LeftShoulder1  8.27223 -22.2302 -25.8743
LeftArm  -30.0164 -47.9783 -12.3745
LeftForeArm  20.341 -2.91858 -3.55261
LeftHand  -0.25398 0.0180481 5.50724
RightShoulder  3.3589 13.1396 13.2164
RightArm  -39.203 50.1541 3.66997
RightForeArm  3.43946 -1.79151 3.01325
RightHand  -0.994838 4.03102 -12.5355
LeftUpLeg  -56.297 22.6726 -10.0291
LeftLeg  34.0293 -0.906225 -0.315963
LeftFoot  0.325561 0.717797 -7.05545
LeftToes  1.06246e-005 4.65855e-005 -8.18505e-006
72
root  -32.6648 36.5016 21.5901 -23.7027 -86.4889 40.3482
RightUpLeg  -59.8641 -21.9554 16.9844
RightLeg  44.2748 3.13133 2.94666
RightFoot  -1.25784 1.40454 -15.8852
RightToes  0.00048216 0.542163 -0.142577
Spine  60.5254 -3.33147 12.0046
Spine1  12.8803 4.04163 -2.26517
HEad  -30.0269 -10.3359 0.237939
LeftShoulder1  8.98435 -23.7636 -26.6689
LeftArm  -35.1077 -50.4208 -6.13515
LeftForeArm  20.2802 -3.58909 -3.14036
LeftHand  -0.25398 0.0180481 5.50724
RightShoulder  3.55371 14.4646 12.7594
RightArm  -46.944 52.9254 -4.08747
RightForeArm  4.31578 -1.24344 2.24567
RightHand  -0.82028 3.87401 -10.5764
LeftUpLeg  -58.3319 23.4784 -10.5832
LeftLeg  25.7229 -3.25074 -1.40003
LeftFoot  6.01033 0.738646 -5.24602
LeftToes  1.06246e-005 4.65855e-005 -8.18505e-006
